# xmcd CD database file
#
# Track frame offsets:
#	150
#	36455
#	56021
#	71070
#	87172
#	111410
#	126664
#	140188
#	156072
#	175607
#	199702
#	213262
#
# Disc length: 3087 seconds
#
# Revision: 0
# Processed by: cddbd v1.5.2PL0 Copyright (c) Steve Scherf et al.
# Submitted via: CDex 2.14
#
DISCID=b90c0d0c
DTITLE=Richard Kuncicky - Acoustic Standards Volume One
DYEAR=2004
DGENRE=Jazz
TTITLE0=Summertime
TTITLE1=As Time Goes By
TTITLE2=Satin Doll
TTITLE3=When You Wish Upon A Star
TTITLE4=Black Orpheus
TTITLE5=Mean To Me
TTITLE6=Stardust
TTITLE7=The Girl From Ipanema
TTITLE8=Georgia On My Mind
TTITLE9=Over The Rainbow
TTITLE10=I'm Beginning To See The Light
TTITLE11=If I Only Had A Brain
EXTD=YEAR: 2004
EXTT0=
EXTT1=
EXTT2=
EXTT3=
EXTT4=
EXTT5=
EXTT6=
EXTT7=
EXTT8=
EXTT9=
EXTT10=
EXTT11=
PLAYORDER=
